<?xml version="1.0" encoding="UTF-8" standalone="no"?>
<svg
   xmlns:dc="http://purl.org/dc/elements/1.1/"
   xmlns:cc="http://creativecommons.org/ns#"
   xmlns:rdf="http://www.w3.org/1999/02/22-rdf-syntax-ns#"
   xmlns:svg="http://www.w3.org/2000/svg"
   xmlns="http://www.w3.org/2000/svg"
   xmlns:sodipodi="http://sodipodi.sourceforge.net/DTD/sodipodi-0.dtd"
   xmlns:inkscape="http://www.inkscape.org/namespaces/inkscape"
   height="100px"
   width="100px"
   fill="#000000"
   version="1.1"
   x="0px"
   y="0px"
   viewBox="0 0 512 512"
   style="enable-background:new 0 0 512 512;"
   xml:space="preserve"
   id="svg20"
   sodipodi:docname="favicon.svg"
   inkscape:version="0.92.4 (unknown)"><metadata
     id="metadata26"><rdf:RDF><cc:Work
         rdf:about=""><dc:format>image/svg+xml</dc:format><dc:type
           rdf:resource="http://purl.org/dc/dcmitype/StillImage" /></cc:Work></rdf:RDF></metadata><defs
     id="defs24" /><sodipodi:namedview
     pagecolor="#ffffff"
     bordercolor="#666666"
     borderopacity="1"
     objecttolerance="10"
     gridtolerance="10"
     guidetolerance="10"
     inkscape:pageopacity="0"
     inkscape:pageshadow="2"
     inkscape:window-width="1855"
     inkscape:window-height="1056"
     id="namedview22"
     showgrid="false"
     inkscape:zoom="2.36"
     inkscape:cx="-25.635593"
     inkscape:cy="50"
     inkscape:window-x="65"
     inkscape:window-y="24"
     inkscape:window-maximized="1"
     inkscape:current-layer="svg20" /><g
     id="g18"
     style="fill-opacity:1;fill:#18b092"><g
       id="g16"
       style="fill-opacity:1;fill:#18b092"><path
         d="M256,16C123.36,16,16,123.34,16,256c0,132.642,107.34,240,240,240c132.641,0,240-107.341,240-240    C496,123.357,388.655,16,256,16z M256,476c-121.309,0-220-98.691-220-220S134.691,36,256,36s220,98.691,220,220    S377.309,476,256,476z"
         id="path2"
         style="fill-opacity:1;fill:#18b092" /><path
         d="M223.926,244.541c1.753,1.273,3.815,1.91,5.878,1.91c6.759,0,11.616-6.609,9.511-13.09l-13.945-42.917l36.508-26.524    c3.505-2.546,4.971-7.06,3.633-11.181c-1.339-4.12-5.179-6.91-9.511-6.91h-45.126l-13.945-42.918    c-1.339-4.12-5.179-6.91-9.511-6.91s-8.172,2.79-9.511,6.91l-13.945,42.918h-45.126c-4.332,0-8.172,2.79-9.511,6.91    c-1.338,4.121,0.128,8.634,3.633,11.181l36.508,26.524l-13.945,42.917c-1.338,4.121,0.128,8.634,3.633,11.181    c3.505,2.546,8.251,2.546,11.756,0l36.508-26.525L223.926,244.541z M164.054,210.27l6.68-20.557    c1.338-4.121-0.128-8.634-3.633-11.181l-17.487-12.705h21.615c4.332,0,8.172-2.79,9.511-6.91l6.679-20.557l6.679,20.557    c1.339,4.12,5.179,6.91,9.511,6.91h21.615l-17.487,12.705c-3.505,2.546-4.971,7.06-3.633,11.181l6.68,20.557l-17.487-12.705    c-3.505-2.546-8.251-2.546-11.756,0L164.054,210.27z"
         id="path4"
         style="fill-opacity:1;fill:#18b092" /><path
         d="M445.511,232.737c-1.339-4.12-5.179-6.91-9.511-6.91h-45.127l-13.944-42.918c-1.339-4.12-5.179-6.91-9.511-6.91    c-4.333,0-8.172,2.79-9.511,6.91l-13.944,42.917h-45.126c-4.332,0-8.172,2.79-9.511,6.91s0.128,8.634,3.633,11.181l36.508,26.524    l-13.945,42.918c-1.339,4.12,0.128,8.634,3.633,11.18c3.504,2.547,8.25,2.547,11.756,0l36.508-26.524l36.508,26.524    c3.504,2.547,8.25,2.547,11.756,0c3.505-2.546,4.971-7.06,3.633-11.18l-13.944-42.918l36.508-26.524    C445.383,241.371,446.849,236.857,445.511,232.737z M387.736,258.533c-3.505,2.546-4.972,7.06-3.633,11.18l6.679,20.558    l-17.486-12.705c-3.505-2.546-8.251-2.548-11.756,0l-17.486,12.704l6.68-20.557c1.338-4.12-0.128-8.634-3.633-11.18    l-17.487-12.706h21.615c4.332,0,8.172-2.79,9.511-6.91l6.679-20.557l6.68,20.557c1.339,4.12,5.179,6.91,9.511,6.91h21.615    L387.736,258.533z"
         id="path6"
         style="fill-opacity:1;fill:#18b092" /><path
         d="M264.971,320.549H235.91l-8.98-27.639c-1.339-4.12-5.179-6.91-9.511-6.91s-8.172,2.79-9.511,6.91l-8.98,27.639h-29.062    c-4.332,0-8.172,2.79-9.511,6.91c-1.338,4.12,0.128,8.634,3.633,11.18l23.511,17.082l-8.98,27.64    c-1.338,4.12,0.128,8.634,3.633,11.18c3.505,2.547,8.251,2.547,11.756,0l23.511-17.082l23.511,17.082    c3.505,2.547,8.251,2.547,11.756,0c3.504-2.546,4.971-7.06,3.632-11.18l-8.98-27.64l23.511-17.082    c3.505-2.546,4.971-7.06,3.633-11.18C273.143,323.339,269.303,320.549,264.971,320.549z M229.704,343.812    c-3.505,2.546-4.971,7.06-3.633,11.18l1.715,5.278l-4.489-3.262c-3.504-2.546-8.25-2.548-11.756,0l-4.49,3.262l1.715-5.278    c1.338-4.12-0.128-8.634-3.633-11.18l-4.49-3.263h5.55c4.332,0,8.172-2.79,9.511-6.91l1.715-5.278l1.715,5.278    c1.339,4.12,5.179,6.91,9.511,6.91h5.55L229.704,343.812z"
         id="path8"
         style="fill-opacity:1;fill:#18b092" /><path
         d="M301,141h15v15c0,5.523,4.477,10,10,10c5.522,0,10-4.477,10-10v-15h15c5.522,0,10-4.477,10-10s-4.478-10-10-10h-15v-15    c0-5.523-4.478-10-10-10c-5.523,0-10,4.477-10,10v15h-15c-5.523,0-10,4.477-10,10S295.477,141,301,141z"
         id="path10"
         style="fill-opacity:1;fill:#18b092" /><path
         d="M126,291h-15v-15c0-5.522-4.477-10-10-10s-10,4.478-10,10v15H76c-5.523,0-10,4.478-10,10s4.477,10,10,10h15v15    c0,5.522,4.477,10,10,10s10-4.478,10-10v-15h15c5.523,0,10-4.478,10-10S131.523,291,126,291z"
         id="path12"
         style="fill-opacity:1;fill:#18b092" /><path
         d="M346,371h-15v-15c0-5.522-4.478-10-10-10c-5.523,0-10,4.478-10,10v15h-15c-5.523,0-10,4.478-10,10s4.477,10,10,10h15v15    c0,5.522,4.477,10,10,10c5.522,0,10-4.478,10-10v-15h15c5.522,0,10-4.478,10-10S351.522,371,346,371z"
         id="path14"
         style="fill-opacity:1;fill:#18b092" /></g></g></svg>