<svg id="cvsvg" xmlns="http://www.w3.org/2000/svg" xmlns:xlink="http://www.w3.org/1999/xlink" width="40" height="40" viewBox="0 0 100 100">
<circle id="backcircle" stroke="none" fill="#1abc9c" r="48%" cx="50%" cy="50%"></circle><g transform="translate(50 50) scale(0.69 0.69) rotate(0) translate(-50 -50)" style="fill:#ffffff"><svg fill="#ffffff" xmlns="http://www.w3.org/2000/svg" xmlns:xlink="http://www.w3.org/1999/xlink" version="1.1" x="0px" y="0px" viewBox="0 0 500 500" style="enable-background:new 0 0 500 500;" xml:space="preserve"><g><polygon points="404,120.9 311.9,120.9 311.9,30  "></polygon><path d="M404,130.9h-92.1c-5.5,0-10-4.5-10-10V30c0-4,2.4-7.7,6.1-9.2c3.7-1.6,8-0.7,10.9,2.1l92.1,90.9c2.9,2.8,3.8,7.2,2.2,10.9   C411.7,128.4,408.1,130.9,404,130.9z M321.9,110.9h57.7l-57.7-57V110.9z"></path></g><g><path d="M203.8,237.6h18.7c11,0,20-9,20-20s-9-20-20-20h-18.7c-35.4,0-64.2,28.8-64.2,64.2v29.5c0,35.4,28.8,64.2,64.2,64.2h18.7   c11,0,20-9,20-20s-9-20-20-20h-18.7c-13.4,0-24.2-10.9-24.2-24.2v-29.5C179.5,248.5,190.4,237.6,203.8,237.6z"></path><path d="M348.7,198.1c-10.8-2.3-21.4,4.6-23.7,15.4L307.2,296l-15.6-82.5c-2.1-10.9-12.5-18-23.4-15.9c-10.9,2.1-18,12.5-15.9,23.4   l19.7,104.6c3.2,16.8,17.3,28.7,34.4,28.9c0.2,0,0.3,0,0.5,0c16.9,0,31.1-11.5,34.7-28l22.4-104.4   C366.4,211,359.5,200.4,348.7,198.1z"></path></g><path d="M417.9,105.7l-55-53.4l-37-36.5c-3.9-3.9-9.2-5.9-14.5-5.8c-0.1,0-0.1,0-0.2,0H96c-11,0-20,9-20,20v443c0,11,9,20,20,20h308  c11,0,20-9,20-20V120C424,114.6,421.8,109.4,417.9,105.7z M355.3,100.9h-23.3v-23l3,3L355.3,100.9z M281,453  c-91.1,0-165-73.9-165-165V50h175.9v70.9c0,11,9,20,20,20H384V453H281z"></path></svg></g></svg>
