<?xml version="1.0" encoding="UTF-8" standalone="no"?>
<svg
   xmlns:dc="http://purl.org/dc/elements/1.1/"
   xmlns:cc="http://creativecommons.org/ns#"
   xmlns:rdf="http://www.w3.org/1999/02/22-rdf-syntax-ns#"
   xmlns:svg="http://www.w3.org/2000/svg"
   xmlns="http://www.w3.org/2000/svg"
   aria-label="Google Scholar"
   role="img"
   viewBox="0 0 100 100"
   version="1.1"
   id="svg6"
   width="40"
   height="40">
  <metadata
     id="metadata12">
    <rdf:RDF>
      <cc:Work
         rdf:about="">
        <dc:format>image/svg+xml</dc:format>
        <dc:type
           rdf:resource="http://purl.org/dc/dcmitype/StillImage" />
        <dc:title></dc:title>
      </cc:Work>
    </rdf:RDF>
  </metadata>
  <defs
     id="defs10" />
  <ellipse
     style="opacity:0.997;fill:#1abc9c;fill-opacity:1;stroke-width:1.16623"
     id="path837"
     cx="49.759441"
     cy="50.655872"
     ry="47.955448"
     rx="48" />
  <path
     fill="#fff"
     d="M 43.68683,23.95016 25.884996,39.589144 h 11.47968 c 0.831874,7.486736 6.821273,10.647813 12.977036,11.146932 -1.164602,2.994714 -0.665483,4.492043 1.164602,6.488518 -7.154001,0.166309 -17.136324,4.325679 -17.136324,11.146953 0.665482,7.486724 10.481442,8.984084 15.306239,8.984084 6.322127,0.16631 13.476128,-3.161077 14.973485,-8.984084 0.665482,-5.823036 -1.663721,-8.984113 -5.157526,-11.812435 -3.826559,-2.994714 -4.658434,-4.658434 -3.493832,-6.654882 2.495595,-2.82835 5.823036,-4.49207 6.488518,-8.484994 0.332755,-2.828325 -0.332727,-4.65842 -0.998238,-7.154001 l 7.486756,-6.322143 -0.166308,2.661955 C 68.309965,30.937792 67.97721,31.60328 67.97721,32.102399 V 49.23872 c 0.332755,2.162839 3.660196,1.830111 3.82656,0 V 32.102399 c 0,-0.499119 -0.332727,-1.164607 -0.831846,-1.33098 v -4.159303 l 2.661958,-2.661956 z m 9.649568,23.458475 C 43.187711,49.072356 38.862032,32.934259 47.014271,30.937792 c 9.31684,-1.830093 13.808883,14.308004 6.322127,16.470843 z m -0.831847,12.145163 c 9.982323,2.162839 10.148687,10.481469 1.663721,12.977036 -7.320392,1.497357 -13.642519,-0.665483 -13.476155,-4.991161 0,-4.159316 5.823035,-7.985875 11.812434,-7.985875 z"
     id="path4"
     style="fill:#ffffff;fill-opacity:1;stroke-width:0.166372" />
</svg>
